<?xml version="1.0" standalone="no"?>
<!DOCTYPE svg PUBLIC "-//W3C//DTD SVG 20010904//EN"
 "http://www.w3.org/TR/2001/REC-SVG-20010904/DTD/svg10.dtd">
<svg version="1.0" xmlns="http://www.w3.org/2000/svg"
 width="243.000000pt" height="243.000000pt" viewBox="0 0 243.000000 243.000000"
 preserveAspectRatio="xMidYMid meet">
<metadata>
Created by potrace 1.11, written by Peter Selinger 2001-2013
</metadata>
<g transform="translate(0.000000,243.000000) scale(0.100000,-0.100000)"
fill="#000000" stroke="none">
<path d="M1198 2335 c-2 -2 -22 -6 -44 -9 -57 -6 -94 -23 -246 -112 -73 -42
-146 -85 -163 -94 -16 -9 -65 -38 -108 -64 -43 -25 -80 -46 -83 -46 -2 0 -27
-15 -56 -33 -29 -18 -70 -42 -92 -52 -55 -29 -138 -112 -169 -171 -14 -27 -30
-75 -34 -105 -5 -29 -8 -236 -7 -459 1 -436 1 -440 56 -537 27 -48 109 -133
129 -133 5 0 39 -19 76 -42 74 -45 73 -44 248 -144 66 -37 123 -73 127 -79 4
-5 8 -6 8 -1 0 5 8 2 18 -6 9 -8 52 -34 95 -57 46 -25 75 -47 71 -53 -4 -6 -2
-8 4 -5 5 4 30 -2 55 -12 32 -14 68 -19 135 -19 85 0 95 2 164 37 79 41 77 40
288 163 80 46 152 87 160 91 8 4 33 18 55 32 22 14 49 30 60 35 150 75 219
143 266 261 20 52 21 70 21 479 1 475 -1 495 -62 587 -42 65 -69 92 -120 121
-64 36 -115 66 -120 72 -3 3 -23 14 -45 25 -22 11 -42 22 -45 25 -3 3 -22 14
-42 25 -20 10 -34 23 -31 28 3 6 1 7 -6 3 -6 -4 -17 -3 -24 2 -11 9 -31 21
-137 80 -25 14 -47 28 -50 31 -5 6 -70 42 -170 93 -30 16 -78 31 -105 34 -28
3 -55 7 -62 9 -6 2 -13 2 -15 0z"/>
</g>
</svg>
